<svg width="116" height="118" viewBox="0 0 116 118" fill="none" xmlns="http://www.w3.org/2000/svg">
<g id="QR-Code-Scan">
<g id="Group 20182">
<path id="Rectangle-path" d="M49.9587 16.876H46.5996V20.2353H49.9587V16.876Z" fill="white"/>
<path id="Rectangle-path_2" d="M46.6008 20.2354H43.2417V23.5946H46.6008V20.2354Z" fill="white"/>
<path id="Rectangle-path_3" d="M69.8825 20.2354H66.5234V23.5946H69.8825V20.2354Z" fill="white"/>
<path id="Rectangle-path_4" d="M73.1159 20.2354H69.7568V23.5946H73.1159V20.2354Z" fill="white"/>
<path id="Rectangle-path_5" d="M49.9587 20.2354H46.5996V23.5946H49.9587V20.2354Z" fill="white"/>
<path id="Rectangle-path_6" d="M56.6774 20.2354H53.3184V23.5946H56.6774V20.2354Z" fill="white"/>
<path id="Rectangle-path_7" d="M60.0378 20.2354H56.6787V23.5946H60.0378V20.2354Z" fill="white"/>
<path id="Rectangle-path_8" d="M49.9587 23.5947H46.5996V26.954H49.9587V23.5947Z" fill="white"/>
<path id="Rectangle-path_9" d="M53.318 23.5947H49.959V26.954H53.318V23.5947Z" fill="white"/>
<path id="Rectangle-path_10" d="M56.6774 23.5947H53.3184V26.954H56.6774V23.5947Z" fill="white"/>
<path id="Rectangle-path_11" d="M66.7546 23.5947H63.3955V26.954H66.7546V23.5947Z" fill="white"/>
<path id="Rectangle-path_12" d="M46.6008 26.9536H43.2417V30.3129H46.6008V26.9536Z" fill="white"/>
<path id="Rectangle-path_13" d="M69.8825 26.9536H66.5234V30.3129H69.8825V26.9536Z" fill="white"/>
<path id="Rectangle-path_14" d="M49.9587 26.9536H46.5996V30.3129H49.9587V26.9536Z" fill="white"/>
<path id="Rectangle-path_15" d="M56.6774 26.9536H53.3184V30.3129H56.6774V26.9536Z" fill="white"/>
<path id="Rectangle-path_16" d="M63.3962 26.9536H60.0371V30.3129H63.3962V26.9536Z" fill="white"/>
<path id="Rectangle-path_17" d="M66.7546 26.9536H63.3955V30.3129H66.7546V26.9536Z" fill="white"/>
<path id="Rectangle-path_18" d="M53.318 30.3135H49.959V33.6728H53.318V30.3135Z" fill="white"/>
<path id="Rectangle-path_19" d="M60.0378 30.3135H56.6787V33.6728H60.0378V30.3135Z" fill="white"/>
<path id="Rectangle-path_20" d="M73.6188 30.3135H70.2598V33.6728H73.6188V30.3135Z" fill="white"/>
<path id="Rectangle-path_21" d="M66.7546 30.3135H63.3955V33.6728H66.7546V30.3135Z" fill="white"/>
<path id="Rectangle-path_22" d="M46.6008 33.6729H43.2417V37.0321H46.6008V33.6729Z" fill="white"/>
<path id="Rectangle-path_23" d="M69.8825 33.6729H66.5234V37.0321H69.8825V33.6729Z" fill="white"/>
<path id="Rectangle-path_24" d="M53.318 33.6729H49.959V37.0321H53.318V33.6729Z" fill="white"/>
<path id="Rectangle-path_25" d="M63.3962 33.6729H60.0371V37.0321H63.3962V33.6729Z" fill="white"/>
<path id="Rectangle-path_26" d="M46.6008 37.0322H43.2417V40.3915H46.6008V37.0322Z" fill="white"/>
<path id="Rectangle-path_27" d="M69.8825 37.0322H66.5234V40.3915H69.8825V37.0322Z" fill="white"/>
<path id="Rectangle-path_28" d="M53.318 37.0322H49.959V40.3915H53.318V37.0322Z" fill="white"/>
<path id="Rectangle-path_29" d="M60.0378 37.0322H56.6787V40.3915H60.0378V37.0322Z" fill="white"/>
<path id="Rectangle-path_30" d="M66.7546 37.0322H63.3955V40.3915H66.7546V37.0322Z" fill="white"/>
<path id="Rectangle-path_31" d="M60.0378 40.3921H56.6787V43.7514H60.0378V40.3921Z" fill="white"/>
<path id="Rectangle-path_32" d="M73.6188 40.3921H70.2598V43.7514H73.6188V40.3921Z" fill="white"/>
<path id="Rectangle-path_33" d="M66.7546 40.3921H63.3955V43.7514H66.7546V40.3921Z" fill="white"/>
<path id="Rectangle-path_34" d="M19.7277 43.7505H16.3687V47.1098H19.7277V43.7505Z" fill="white"/>
<path id="Rectangle-path_35" d="M23.0856 43.7505H19.7266V47.1098H23.0856V43.7505Z" fill="white"/>
<path id="Rectangle-path_36" d="M26.445 43.7505H23.0859V47.1098H26.445V43.7505Z" fill="white"/>
<path id="Rectangle-path_37" d="M29.8049 43.7505H26.4458V47.1098H29.8049V43.7505Z" fill="white"/>
<path id="Rectangle-path_38" d="M33.1633 43.7505H29.8042V47.1098H33.1633V43.7505Z" fill="white"/>
<path id="Rectangle-path_39" d="M39.8825 43.7505H36.5234V47.1098H39.8825V43.7505Z" fill="white"/>
<path id="Rectangle-path_40" d="M43.2404 43.7505H39.8813V47.1098H43.2404V43.7505Z" fill="white"/>
<path id="Rectangle-path_41" d="M46.6008 43.7505H43.2417V47.1098H46.6008V43.7505Z" fill="white"/>
<path id="Rectangle-path_42" d="M49.9587 43.7505H46.5996V47.1098H49.9587V43.7505Z" fill="white"/>
<path id="Rectangle-path_43" d="M53.318 43.7505H49.959V47.1098H53.318V43.7505Z" fill="white"/>
<path id="Rectangle-path_44" d="M60.0378 43.7505H56.6787V47.1098H60.0378V43.7505Z" fill="white"/>
<path id="Rectangle-path_45" d="M73.6188 43.7505H70.2598V47.1098H73.6188V43.7505Z" fill="white"/>
<path id="Rectangle-path_46" d="M63.3962 43.7505H60.0371V47.1098H63.3962V43.7505Z" fill="white"/>
<path id="Rectangle-path_47" d="M66.7546 43.7505H63.3955V47.1098H66.7546V43.7505Z" fill="white"/>
<path id="Rectangle-path_48" d="M23.0856 47.1099H19.7266V50.4692H23.0856V47.1099Z" fill="white"/>
<path id="Rectangle-path_49" d="M36.5221 47.1099H33.1631V50.4692H36.5221V47.1099Z" fill="white"/>
<path id="Rectangle-path_50" d="M49.9587 47.1099H46.5996V50.4692H49.9587V47.1099Z" fill="white"/>
<path id="Rectangle-path_51" d="M26.445 50.4697H23.0859V53.829H26.445V50.4697Z" fill="white"/>
<path id="Rectangle-path_52" d="M29.8049 50.4697H26.4458V53.829H29.8049V50.4697Z" fill="white"/>
<path id="Rectangle-path_53" d="M36.5221 50.4697H33.1631V53.829H36.5221V50.4697Z" fill="white"/>
<path id="Rectangle-path_54" d="M39.8825 50.4697H36.5234V53.829H39.8825V50.4697Z" fill="white"/>
<path id="Rectangle-path_55" d="M43.2404 50.4697H39.8813V53.829H43.2404V50.4697Z" fill="white"/>
<path id="Rectangle-path_56" d="M46.6008 50.4697H43.2417V53.829H46.6008V50.4697Z" fill="white"/>
<path id="Rectangle-path_57" d="M49.9587 50.4697H46.5996V53.829H49.9587V50.4697Z" fill="white"/>
<path id="Rectangle-path_58" d="M56.6774 50.4697H53.3184V53.829H56.6774V50.4697Z" fill="white"/>
<path id="Rectangle-path_59" d="M60.0378 50.4697H56.6787V53.829H60.0378V50.4697Z" fill="white"/>
<path id="Rectangle-path_60" d="M63.3962 50.4697H60.0371V53.829H63.3962V50.4697Z" fill="white"/>
<path id="Rectangle-path_61" d="M66.7546 50.4697H63.3955V53.829H66.7546V50.4697Z" fill="white"/>
<path id="Rectangle-path_62" d="M70.1139 50.4697H66.7549V53.829H70.1139V50.4697Z" fill="white"/>
<path id="Rectangle-path_63" d="M73.4743 50.4697H70.1152V53.829H73.4743V50.4697Z" fill="white"/>
<path id="Rectangle-path_64" d="M76.8337 50.4697H73.4746V53.829H76.8337V50.4697Z" fill="white"/>
<path id="Rectangle-path_65" d="M80.1921 50.4697H76.833V53.829H80.1921V50.4697Z" fill="white"/>
<path id="Rectangle-path_66" d="M86.9108 50.4697H83.5518V53.829H86.9108V50.4697Z" fill="white"/>
<path id="Rectangle-path_67" d="M90.2682 50.4697H86.9092V53.829H90.2682V50.4697Z" fill="white"/>
<path id="Rectangle-path_68" d="M96.988 50.4697H93.6289V53.829H96.988V50.4697Z" fill="white"/>
<path id="Rectangle-path_69" d="M100.346 50.4697H96.9873V53.829H100.346V50.4697Z" fill="white"/>
<path id="Rectangle-path_70" d="M26.445 53.8296H23.0859V57.1889H26.445V53.8296Z" fill="white"/>
<path id="Rectangle-path_71" d="M29.8049 53.8296H26.4458V57.1889H29.8049V53.8296Z" fill="white"/>
<path id="Rectangle-path_72" d="M46.6008 53.8296H43.2417V57.1889H46.6008V53.8296Z" fill="white"/>
<path id="Rectangle-path_73" d="M49.9587 53.8296H46.5996V57.1889H49.9587V53.8296Z" fill="white"/>
<path id="Rectangle-path_74" d="M53.318 53.8296H49.959V57.1889H53.318V53.8296Z" fill="white"/>
<path id="Rectangle-path_75" d="M56.6774 53.8296H53.3184V57.1889H56.6774V53.8296Z" fill="white"/>
<path id="Rectangle-path_76" d="M70.1139 53.8296H66.7549V57.1889H70.1139V53.8296Z" fill="white"/>
<path id="Rectangle-path_77" d="M73.4743 53.8296H70.1152V57.1889H73.4743V53.8296Z" fill="white"/>
<path id="Rectangle-path_78" d="M76.8337 53.8296H73.4746V57.1889H76.8337V53.8296Z" fill="white"/>
<path id="Rectangle-path_79" d="M80.1921 53.8296H76.833V57.1889H80.1921V53.8296Z" fill="white"/>
<path id="Rectangle-path_80" d="M83.5514 53.8296H80.1924V57.1889H83.5514V53.8296Z" fill="white"/>
<path id="Rectangle-path_81" d="M86.9108 53.8296H83.5518V57.1889H86.9108V53.8296Z" fill="white"/>
<path id="Rectangle-path_82" d="M100.346 53.8296H96.9873V57.1889H100.346V53.8296Z" fill="white"/>
<path id="Rectangle-path_83" d="M36.5221 57.189H33.1631V60.5483H36.5221V57.189Z" fill="white"/>
<path id="Rectangle-path_84" d="M39.8825 57.189H36.5234V60.5483H39.8825V57.189Z" fill="white"/>
<path id="Rectangle-path_85" d="M49.9587 57.189H46.5996V60.5483H49.9587V57.189Z" fill="white"/>
<path id="Rectangle-path_86" d="M56.6774 57.189H53.3184V60.5483H56.6774V57.189Z" fill="white"/>
<path id="Rectangle-path_87" d="M66.7546 57.189H63.3955V60.5483H66.7546V57.189Z" fill="white"/>
<path id="Rectangle-path_88" d="M70.1139 57.189H66.7549V60.5483H70.1139V57.189Z" fill="white"/>
<path id="Rectangle-path_89" d="M76.8337 57.189H73.4746V60.5483H76.8337V57.189Z" fill="white"/>
<path id="Rectangle-path_90" d="M80.1921 57.189H76.833V60.5483H80.1921V57.189Z" fill="white"/>
<path id="Rectangle-path_91" d="M86.9108 57.189H83.5518V60.5483H86.9108V57.189Z" fill="white"/>
<path id="Rectangle-path_92" d="M93.6286 57.189H90.2695V60.5483H93.6286V57.189Z" fill="white"/>
<path id="Rectangle-path_93" d="M96.988 57.189H93.6289V60.5483H96.988V57.189Z" fill="white"/>
<path id="Rectangle-path_94" d="M100.346 57.189H96.9873V60.5483H100.346V57.189Z" fill="white"/>
<path id="Rectangle-path_95" d="M19.7277 60.5483H16.3687V63.9076H19.7277V60.5483Z" fill="white"/>
<path id="Rectangle-path_96" d="M23.0856 60.5483H19.7266V63.9076H23.0856V60.5483Z" fill="white"/>
<path id="Rectangle-path_97" d="M26.445 60.5483H23.0859V63.9076H26.445V60.5483Z" fill="white"/>
<path id="Rectangle-path_98" d="M33.1633 60.5483H29.8042V63.9076H33.1633V60.5483Z" fill="white"/>
<path id="Rectangle-path_99" d="M46.6008 60.5483H43.2417V63.9076H46.6008V60.5483Z" fill="white"/>
<path id="Rectangle-path_100" d="M49.9587 60.5483H46.5996V63.9076H49.9587V60.5483Z" fill="white"/>
<path id="Rectangle-path_101" d="M53.318 60.5483H49.959V63.9076H53.318V60.5483Z" fill="white"/>
<path id="Rectangle-path_102" d="M60.0378 60.5483H56.6787V63.9076H60.0378V60.5483Z" fill="white"/>
<path id="Rectangle-path_103" d="M73.4743 60.5483H70.1152V63.9076H73.4743V60.5483Z" fill="white"/>
<path id="Rectangle-path_104" d="M90.2682 60.5483H86.9092V63.9076H90.2682V60.5483Z" fill="white"/>
<path id="Rectangle-path_105" d="M96.988 60.5483H93.6289V63.9076H96.988V60.5483Z" fill="white"/>
<path id="Rectangle-path_106" d="M19.7277 63.9072H16.3687V67.2665H19.7277V63.9072Z" fill="white"/>
<path id="Rectangle-path_107" d="M26.445 63.9072H23.0859V67.2665H26.445V63.9072Z" fill="white"/>
<path id="Rectangle-path_108" d="M29.8049 63.9072H26.4458V67.2665H29.8049V63.9072Z" fill="white"/>
<path id="Rectangle-path_109" d="M36.5221 63.9072H33.1631V67.2665H36.5221V63.9072Z" fill="white"/>
<path id="Rectangle-path_110" d="M39.8825 63.9072H36.5234V67.2665H39.8825V63.9072Z" fill="white"/>
<path id="Rectangle-path_111" d="M70.1139 63.9072H66.7549V67.2665H70.1139V63.9072Z" fill="white"/>
<path id="Rectangle-path_112" d="M73.4743 63.9072H70.1152V67.2665H73.4743V63.9072Z" fill="white"/>
<path id="Rectangle-path_113" d="M80.1921 67.1406H76.833V70.4999H80.1921V67.1406Z" fill="white"/>
<path id="Rectangle-path_114" d="M90.2682 63.9072H86.9092V67.2665H90.2682V63.9072Z" fill="white"/>
<path id="Rectangle-path_115" d="M96.988 63.9072H93.6289V67.2665H96.988V63.9072Z" fill="white"/>
<path id="Rectangle-path_116" d="M100.346 63.9072H96.9873V67.2665H100.346V63.9072Z" fill="white"/>
<path id="Rectangle-path_117" d="M19.7277 67.2671H16.3687V70.6264H19.7277V67.2671Z" fill="white"/>
<path id="Rectangle-path_118" d="M46.6008 67.2671H43.2417V70.6264H46.6008V67.2671Z" fill="white"/>
<path id="Rectangle-path_119" d="M60.0378 67.2671H56.6787V70.6264H60.0378V67.2671Z" fill="white"/>
<path id="Rectangle-path_120" d="M66.7546 67.2671H63.3955V70.6264H66.7546V67.2671Z" fill="white"/>
<path id="Rectangle-path_121" d="M70.1139 67.2671H66.7549V70.6264H70.1139V67.2671Z" fill="white"/>
<path id="Rectangle-path_122" d="M73.4743 67.2671H70.1152V70.6264H73.4743V67.2671Z" fill="white"/>
<path id="Rectangle-path_123" d="M76.8337 67.2671H73.4746V70.6264H76.8337V67.2671Z" fill="white"/>
<path id="Rectangle-path_124" d="M80.1921 70.501H76.833V73.8603H80.1921V70.501Z" fill="white"/>
<path id="Rectangle-path_125" d="M83.5514 67.2671H80.1924V70.6264H83.5514V67.2671Z" fill="white"/>
<path id="Rectangle-path_126" d="M86.9108 67.2671H83.5518V70.6264H86.9108V67.2671Z" fill="white"/>
<path id="Rectangle-path_127" d="M90.2682 67.2671H86.9092V70.6264H90.2682V67.2671Z" fill="white"/>
<path id="Rectangle-path_128" d="M100.346 67.2671H96.9873V70.6264H100.346V67.2671Z" fill="white"/>
<path id="Rectangle-path_129" d="M19.7277 70.627H16.3687V73.9862H19.7277V70.627Z" fill="white"/>
<path id="Rectangle-path_130" d="M29.8049 70.627H26.4458V73.9862H29.8049V70.627Z" fill="white"/>
<path id="Rectangle-path_131" d="M33.1633 70.627H29.8042V73.9862H33.1633V70.627Z" fill="white"/>
<path id="Rectangle-path_132" d="M36.5221 70.627H33.1631V73.9862H36.5221V70.627Z" fill="white"/>
<path id="Rectangle-path_133" d="M39.8825 70.627H36.5234V73.9862H39.8825V70.627Z" fill="white"/>
<path id="Rectangle-path_134" d="M49.9587 70.627H46.5996V73.9862H49.9587V70.627Z" fill="white"/>
<path id="Rectangle-path_135" d="M53.318 70.627H49.959V73.9862H53.318V70.627Z" fill="white"/>
<path id="Rectangle-path_136" d="M60.0378 70.627H56.6787V73.9862H60.0378V70.627Z" fill="white"/>
<path id="Rectangle-path_137" d="M63.3962 70.627H60.0371V73.9862H63.3962V70.627Z" fill="white"/>
<path id="Rectangle-path_138" d="M66.7546 70.627H63.3955V73.9862H66.7546V70.627Z" fill="white"/>
<path id="Rectangle-path_139" d="M73.4743 70.627H70.1152V73.9862H73.4743V70.627Z" fill="white"/>
<path id="Rectangle-path_140" d="M76.8337 70.627H73.4746V73.9862H76.8337V70.627Z" fill="white"/>
<path id="Rectangle-path_141" d="M80.1921 73.8608H76.833V77.2201H80.1921V73.8608Z" fill="white"/>
<path id="Rectangle-path_142" d="M80.1921 47.3433H76.833V50.7025H80.1921V47.3433Z" fill="white"/>
<path id="Rectangle-path_143" d="M83.5514 70.627H80.1924V73.9862H83.5514V70.627Z" fill="white"/>
<path id="Rectangle-path_144" d="M83.5514 44.1094H80.1924V47.4687H83.5514V44.1094Z" fill="white"/>
<path id="Rectangle-path_145" d="M86.9108 70.627H83.5518V73.9862H86.9108V70.627Z" fill="white"/>
<path id="Rectangle-path_146" d="M86.9108 44.1094H83.5518V47.4687H86.9108V44.1094Z" fill="white"/>
<path id="Rectangle-path_147" d="M93.6286 70.627H90.2695V73.9862H93.6286V70.627Z" fill="white"/>
<path id="Rectangle-path_148" d="M93.6286 44.1094H90.2695V47.4687H93.6286V44.1094Z" fill="white"/>
<path id="Rectangle-path_149" d="M46.6008 73.9858H43.2417V77.3451H46.6008V73.9858Z" fill="white"/>
<path id="Rectangle-path_150" d="M53.318 73.9858H49.959V77.3451H53.318V73.9858Z" fill="white"/>
<path id="Rectangle-path_151" d="M66.7546 73.9858H63.3955V77.3451H66.7546V73.9858Z" fill="white"/>
<path id="Rectangle-path_152" d="M70.1139 73.9858H66.7549V77.3451H70.1139V73.9858Z" fill="white"/>
<path id="Rectangle-path_153" d="M73.4743 73.9858H70.1152V77.3451H73.4743V73.9858Z" fill="white"/>
<path id="Rectangle-path_154" d="M46.6008 77.3447H43.2417V80.704H46.6008V77.3447Z" fill="white"/>
<path id="Rectangle-path_155" d="M49.9587 77.3447H46.5996V80.704H49.9587V77.3447Z" fill="white"/>
<path id="Rectangle-path_156" d="M53.318 77.3447H49.959V80.704H53.318V77.3447Z" fill="white"/>
<path id="Rectangle-path_157" d="M56.6774 77.3447H53.3184V80.704H56.6774V77.3447Z" fill="white"/>
<path id="Rectangle-path_158" d="M60.0378 77.3447H56.6787V80.704H60.0378V77.3447Z" fill="white"/>
<path id="Rectangle-path_159" d="M56.6774 80.7046H53.3184V84.0639H56.6774V80.7046Z" fill="white"/>
<path id="Rectangle-path_160" d="M73.4743 80.7046H70.1152V84.0639H73.4743V80.7046Z" fill="white"/>
<path id="Rectangle-path_161" d="M46.6008 84.0645H43.2417V87.4237H46.6008V84.0645Z" fill="white"/>
<path id="Rectangle-path_162" d="M53.318 84.0645H49.959V87.4237H53.318V84.0645Z" fill="white"/>
<path id="Rectangle-path_163" d="M56.6774 84.0645H53.3184V87.4237H56.6774V84.0645Z" fill="white"/>
<path id="Rectangle-path_164" d="M70.1139 84.0645H66.7549V87.4237H70.1139V84.0645Z" fill="white"/>
<path id="Rectangle-path_165" d="M46.6008 87.4233H43.2417V90.7826H46.6008V87.4233Z" fill="white"/>
<path id="Rectangle-path_166" d="M53.318 87.4233H49.959V90.7826H53.318V87.4233Z" fill="white"/>
<path id="Rectangle-path_167" d="M60.0378 87.4233H56.6787V90.7826H60.0378V87.4233Z" fill="white"/>
<path id="Rectangle-path_168" d="M63.3962 87.4233H60.0371V90.7826H63.3962V87.4233Z" fill="white"/>
<path id="Rectangle-path_169" d="M70.1139 87.4233H66.7549V90.7826H70.1139V87.4233Z" fill="white"/>
<path id="Rectangle-path_170" d="M46.6008 90.7832H43.2417V94.1425H46.6008V90.7832Z" fill="white"/>
<path id="Rectangle-path_171" d="M49.9587 90.7832H46.5996V94.1425H49.9587V90.7832Z" fill="white"/>
<path id="Rectangle-path_172" d="M63.3962 90.7832H60.0371V94.1425H63.3962V90.7832Z" fill="white"/>
<path id="Rectangle-path_173" d="M66.7546 90.7832H63.3955V94.1425H66.7546V90.7832Z" fill="white"/>
<path id="Rectangle-path_174" d="M73.4743 90.7832H70.1152V94.1425H73.4743V90.7832Z" fill="white"/>
<path id="Rectangle-path_175" d="M46.6008 94.1416H43.2417V97.5009H46.6008V94.1416Z" fill="white"/>
<path id="Rectangle-path_176" d="M60.0378 94.1416H56.6787V97.5009H60.0378V94.1416Z" fill="white"/>
<path id="Rectangle-path_177" d="M63.3962 94.1416H60.0371V97.5009H63.3962V94.1416Z" fill="white"/>
<path id="Rectangle-path_178" d="M70.1139 94.1416H66.7549V97.5009H70.1139V94.1416Z" fill="white"/>
<path id="Rectangle-path_179" d="M73.4743 94.1416H70.1152V97.5009H73.4743V94.1416Z" fill="white"/>
<path id="Rectangle-path_180" d="M46.6008 97.5015H43.2417V100.861H46.6008V97.5015Z" fill="white"/>
<path id="Rectangle-path_181" d="M60.0378 97.5015H56.6787V100.861H60.0378V97.5015Z" fill="white"/>
<path id="Rectangle-path_182" d="M66.7546 97.5015H63.3955V100.861H66.7546V97.5015Z" fill="white"/>
<path id="Rectangle-path_183" d="M70.1139 97.5015H66.7549V100.861H70.1139V97.5015Z" fill="white"/>
<g id="Group 20176">
<g id="Group 19347">
<g id="Group 19346">
<path id="Path 56625" d="M31.6282 77.025H24.2252C22.5146 77.0211 20.8482 77.5675 19.472 78.5835C18.0958 79.5996 17.0829 81.0314 16.5829 82.6673C16.4811 83.0065 16.4027 83.3523 16.3482 83.7022C16.2868 84.0993 16.2561 84.5007 16.2563 84.9026V92.4826C16.2707 94.5836 17.1177 96.5931 18.6116 98.0704C20.1055 99.5477 22.1243 100.372 24.2252 100.363H31.6282C33.7292 100.372 35.7481 99.5476 37.242 98.0702C38.7359 96.5928 39.5829 94.5831 39.5971 92.482V84.9026C39.5822 82.802 38.7349 80.793 37.2411 79.3163C35.7472 77.8395 33.7287 77.0155 31.6282 77.025V77.025ZM36.0957 92.4826C36.0826 93.6556 35.6047 94.7755 34.7669 95.5965C33.9291 96.4175 32.7998 96.8726 31.6269 96.8619H24.2259C23.0531 96.8726 21.9239 96.4176 21.0861 95.5967C20.2483 94.7758 19.7703 93.6561 19.757 92.4833V84.9026C19.7563 84.1726 19.9422 83.4546 20.297 82.8167C20.6307 82.2191 21.0979 81.7067 21.6623 81.3195C22.4161 80.8012 23.3098 80.5246 24.2246 80.5266H31.6282C32.8006 80.5159 33.9293 80.9706 34.7668 81.7911C35.6043 82.6116 36.0823 83.7308 36.0957 84.9032V92.4826Z" fill="white"/>
</g>
</g>
</g>
<g id="Group 20178">
<g id="Group 19347_2">
<g id="Group 19346_2">
<path id="Path 56625_2" d="M31.6282 17.5225H24.2252C22.5146 17.5186 20.8482 18.065 19.472 19.0811C18.0958 20.0971 17.0829 21.5289 16.5829 23.1649C16.4811 23.5041 16.4027 23.8498 16.3482 24.1997C16.2868 24.5969 16.2561 24.9982 16.2563 25.4001V32.9802C16.2707 35.0812 17.1177 37.0907 18.6116 38.568C20.1055 40.0452 22.1243 40.8696 24.2252 40.8603H31.6282C33.7292 40.8696 35.7481 40.0452 37.242 38.5677C38.7359 37.0903 39.5829 35.0806 39.5971 32.9795V25.4001C39.5822 23.2995 38.7349 21.2906 37.2411 19.8138C35.7472 18.3371 33.7287 17.5131 31.6282 17.5225V17.5225ZM36.0957 32.9802C36.0826 34.1532 35.6047 35.273 34.7669 36.094C33.9291 36.915 32.7998 37.3701 31.6269 37.3594H24.2259C23.0531 37.3701 21.9239 36.9151 21.0861 36.0943C20.2483 35.2734 19.7703 34.1537 19.757 32.9808V25.4001C19.7563 24.6702 19.9422 23.9522 20.297 23.3143C20.6307 22.7167 21.0979 22.2042 21.6623 21.817C22.4161 21.2987 23.3098 21.0222 24.2246 21.0241H31.6282C32.8006 21.0134 33.9293 21.4682 34.7668 22.2887C35.6043 23.1092 36.0823 24.2284 36.0957 25.4008V32.9802Z" fill="white"/>
</g>
</g>
</g>
<g id="Group 20180">
<g id="Group 19347_3">
<g id="Group 19346_3">
<path id="Path 56625_3" d="M92.4217 77.671H85.0187C83.3081 77.6671 81.6416 78.2135 80.2654 79.2295C78.8893 80.2456 77.8764 81.6773 77.3764 83.3133C77.2745 83.6525 77.1961 83.9983 77.1416 84.3482C77.0803 84.7453 77.0496 85.1467 77.0498 85.5486V93.1286C77.0642 95.2296 77.9112 97.2391 79.4051 98.7164C80.899 100.194 82.9178 101.018 85.0187 101.009H92.4217C94.5227 101.018 96.5416 100.194 98.0355 98.7162C99.5294 97.2388 100.376 95.2291 100.391 93.128V85.5486C100.376 83.448 99.5284 81.439 98.0345 79.9622C96.5407 78.4855 94.5222 77.6615 92.4217 77.671V77.671ZM96.8892 93.1286C96.8761 94.3016 96.3982 95.4215 95.5604 96.2425C94.7226 97.0635 93.5933 97.5185 92.4204 97.5079H85.0193C83.8465 97.5185 82.7173 97.0636 81.8796 96.2427C81.0418 95.4218 80.5638 94.3021 80.5505 93.1293V85.5486C80.5498 84.8186 80.7357 84.1006 81.0905 83.4627C81.4241 82.8651 81.8914 82.3527 82.4557 81.9655C83.2095 81.4472 84.1032 81.1706 85.018 81.1726H92.4217C93.594 81.1619 94.7228 81.6166 95.5603 82.4371C96.3978 83.2576 96.8757 84.3768 96.8892 85.5492V93.1286Z" fill="white"/>
</g>
</g>
</g>
<g id="Group 20236">
<g id="Group 19347_4">
<g id="Group 19346_4">
<path id="Path 56625_4" d="M92.4217 16.8756H85.0187C83.3081 16.8716 81.6416 17.4181 80.2654 18.4341C78.8893 19.4502 77.8764 20.8819 77.3764 22.5179C77.2745 22.8571 77.1961 23.2028 77.1416 23.5528C77.0803 23.9499 77.0496 24.3513 77.0498 24.7531V32.3332C77.0642 34.4342 77.9112 36.4437 79.4051 37.921C80.899 39.3983 82.9178 40.2227 85.0187 40.2134H92.4217C94.5227 40.2227 96.5416 39.3982 98.0355 37.9208C99.5294 36.4434 100.376 34.4337 100.391 32.3326V24.7531C100.376 22.6525 99.5284 20.6436 98.0345 19.1668C96.5407 17.6901 94.5222 16.8661 92.4217 16.8756V16.8756ZM96.8892 32.3332C96.8761 33.5062 96.3982 34.626 95.5604 35.4471C94.7226 36.2681 93.5933 36.7231 92.4204 36.7124H85.0193C83.8465 36.7231 82.7173 36.2681 81.8796 35.4473C81.0418 34.6264 80.5638 33.5067 80.5505 32.3339V24.7531C80.5498 24.0232 80.7357 23.3052 81.0905 22.6673C81.4241 22.0697 81.8914 21.5573 82.4557 21.1701C83.2095 20.6518 84.1032 20.3752 85.018 20.3771H92.4217C93.594 20.3664 94.7228 20.8212 95.5603 21.6417C96.3978 22.4622 96.8757 23.5814 96.8892 24.7538V32.3332Z" fill="white"/>
</g>
</g>
</g>
<g id="Group 20177">
<g id="Group 19358">
<g id="Group 19357">
<g id="XMLID_1_">
<g id="Group 19356">
<path id="Path 56629" d="M25.6625 93.6961C24.9442 93.702 24.2529 93.4231 23.7397 92.9205C23.2265 92.4178 22.9334 91.7323 22.9243 91.014V86.3722C22.9244 85.9257 23.0381 85.4865 23.2548 85.0961C23.4587 84.7296 23.7449 84.4154 24.091 84.1784C24.5533 83.8604 25.1014 83.6907 25.6625 83.692H30.1967C30.9146 83.6855 31.6059 83.9639 32.1189 84.4664C32.6318 84.9688 32.9246 85.6542 32.9329 86.3722V91.014C32.9239 91.732 32.631 92.4172 32.1182 92.9198C31.6055 93.4224 30.9146 93.7015 30.1967 93.6961H25.6625Z" fill="white"/>
</g>
</g>
</g>
</g>
</g>
<g id="Group 20179">
<g id="Group 19358_2">
<g id="Group 19357_2">
<g id="XMLID_1__2">
<g id="Group 19356_2">
<path id="Path 56629_2" d="M25.6625 34.1937C24.9442 34.1996 24.2529 33.9207 23.7397 33.418C23.2265 32.9154 22.9334 32.2299 22.9243 31.5116V26.8698C22.9244 26.4232 23.0381 25.9841 23.2548 25.5937C23.4587 25.2271 23.7449 24.9129 24.091 24.6759C24.5533 24.3579 25.1014 24.1883 25.6625 24.1896H30.1967C30.9146 24.183 31.6059 24.4615 32.1189 24.9639C32.6318 25.4664 32.9246 26.1517 32.9329 26.8698V31.5116C32.9239 32.2295 32.631 32.9147 32.1182 33.4173C31.6055 33.9199 30.9146 34.1991 30.1967 34.1937H25.6625Z" fill="white"/>
</g>
</g>
</g>
</g>
</g>
<g id="Group 20181">
<g id="Group 19358_3">
<g id="Group 19357_3">
<g id="XMLID_1__3">
<g id="Group 19356_3">
<path id="Path 56629_3" d="M86.4531 94.3441C85.7348 94.35 85.0434 94.0711 84.5302 93.5684C84.0171 93.0657 83.7239 92.3803 83.7148 91.662V87.0201C83.7149 86.5736 83.8286 86.1345 84.0453 85.7441C84.2492 85.3775 84.5355 85.0633 84.8815 84.8263C85.3438 84.5083 85.892 84.3386 86.4531 84.34H90.9872C91.7052 84.3334 92.3964 84.6119 92.9094 85.1143C93.4223 85.6168 93.7151 86.3021 93.7235 87.0201V91.662C93.7144 92.3799 93.4215 93.0651 92.9088 93.5677C92.396 94.0703 91.7052 94.3494 90.9872 94.3441H86.4531Z" fill="white"/>
</g>
</g>
</g>
</g>
</g>
<g id="Group 20235">
<g id="Group 19358_4">
<g id="Group 19357_4">
<g id="XMLID_1__4">
<g id="Group 19356_4">
<path id="Path 56629_4" d="M86.4531 33.5467C85.7348 33.5526 85.0434 33.2737 84.5302 32.771C84.0171 32.2684 83.7239 31.5829 83.7148 30.8646V26.2228C83.7149 25.7763 83.8286 25.3371 84.0453 24.9467C84.2492 24.5801 84.5355 24.266 84.8815 24.029C85.3438 23.7109 85.892 23.5413 86.4531 23.5426H90.9872C91.7052 23.536 92.3964 23.8145 92.9094 24.317C93.4223 24.8194 93.7151 25.5048 93.7235 26.2228V30.8646C93.7144 31.5826 93.4215 32.2677 92.9088 32.7703C92.396 33.2729 91.7052 33.5521 90.9872 33.5467H86.4531Z" fill="white"/>
</g>
</g>
</g>
</g>
</g>
</g>
<path id="Line 280" d="M2.38477 58.7129H114.257" stroke="#587BF2" stroke-width="2.21404" stroke-linecap="round"/>
<path id="Path 56491" d="M0.757812 58.355H115.888V104.807H0.757812V58.355Z" fill="url(#paint0_linear_101_4584)"/>
<g id="Group 20417">
<path id="Path 58566" d="M101.838 1.52734H104.449C105.277 1.52706 106.097 1.70634 106.863 2.05495C107.628 2.40356 108.323 2.9147 108.909 3.55912C109.495 4.20354 109.959 4.96864 110.276 5.81074C110.594 6.65284 110.757 7.55544 110.757 8.46698V10.9466" stroke="#587BF2" stroke-width="1.32843" stroke-miterlimit="10" stroke-linecap="round"/>
<path id="Path 58568" d="M14.7066 1.52734H12.0956C11.2674 1.52706 10.4472 1.70634 9.68196 2.05495C8.91668 2.40356 8.2213 2.9147 7.63552 3.55912C7.04975 4.20354 6.58505 4.96864 6.26798 5.81074C5.95091 6.65284 5.78768 7.55544 5.7876 8.46698V10.9466" stroke="#587BF2" stroke-width="1.32843" stroke-miterlimit="10" stroke-linecap="round"/>
<path id="Path 58569" d="M14.7066 116.658H12.0956C11.2674 116.658 10.4472 116.479 9.68196 116.13C8.91668 115.781 8.2213 115.27 7.63552 114.626C7.04975 113.981 6.58505 113.216 6.26798 112.374C5.95091 111.532 5.78768 110.629 5.7876 109.718V107.238" stroke="#587BF2" stroke-width="1.32843" stroke-miterlimit="10" stroke-linecap="round"/>
<path id="Path 58567" d="M101.838 116.658H104.449C105.277 116.658 106.097 116.479 106.863 116.13C107.628 115.782 108.324 115.27 108.909 114.626C109.495 113.982 109.96 113.216 110.277 112.374C110.594 111.532 110.757 110.63 110.758 109.718V107.238" stroke="#587BF2" stroke-width="1.32843" stroke-miterlimit="10" stroke-linecap="round"/>
</g>
</g>
<defs>
<linearGradient id="paint0_linear_101_4584" x1="58.3229" y1="58.355" x2="58.3229" y2="104.807" gradientUnits="userSpaceOnUse">
<stop stop-color="#12BE73" stop-opacity="0.6"/>
<stop offset="0.247" stop-color="#12BE73" stop-opacity="0.29"/>
<stop offset="1" stop-color="#12BE73" stop-opacity="0"/>
</linearGradient>
</defs>
</svg>
