<svg width="177" height="138" viewBox="0 0 177 138" fill="none" xmlns="http://www.w3.org/2000/svg">
<g id="Watch it Illustration">
<g id="Group 21186">
<path id="Path 58937" d="M1.96624 38.1895C2.00224 38.1845 2.03841 38.1815 2.07341 38.1785C2.5737 36.3835 3.59482 34.777 5.00774 33.5621C6.42066 32.3471 8.16192 31.5783 10.0116 31.3526C11.8614 31.1269 13.7365 31.4545 15.4001 32.294C17.0637 33.1336 18.4411 34.4473 19.3583 36.0694C19.2339 36.2336 19.1363 36.4166 19.0693 36.6114C18.3188 35.1626 17.1857 33.9472 15.7929 33.0972C14.4001 32.2473 12.801 31.7955 11.1694 31.7906C10.7245 31.7912 10.2802 31.8245 9.84026 31.8905C8.13358 32.146 6.53771 32.8909 5.24578 34.035C3.95384 35.1791 3.02148 36.6732 2.56145 38.3365C2.39568 38.3398 2.23157 38.3712 2.07634 38.4295C2.07771 38.5169 2.08472 38.604 2.09734 38.6905L2.04241 38.6966C1.57255 38.767 1.14977 39.0207 0.86687 39.4024C0.583976 39.7841 0.464043 40.2625 0.533374 40.7325C0.592392 41.1185 0.775386 41.4747 1.05461 41.7476C1.33384 42.0205 1.69401 42.1953 2.08123 42.2454C2.21523 42.2604 2.36645 42.2685 2.41545 42.2755C2.85988 44.5314 4.14404 46.5344 6.00872 47.8797C7.87339 49.225 10.1794 49.8122 12.4604 49.5225C14.7985 49.175 16.9028 47.913 18.3105 46.014C19.7181 44.115 20.3136 41.7347 19.9662 39.3966C19.9492 39.2856 19.9294 39.1745 19.9084 39.0635C20.0808 39.1565 20.2673 39.2206 20.4604 39.2535C20.4604 39.2765 20.4693 39.2986 20.4723 39.3216C20.8229 41.6775 20.2681 44.0786 18.9194 46.0418C17.5707 48.005 15.5282 49.3845 13.2033 49.9024V53.8885H12.6913V50.0015C12.6393 50.0105 12.5914 50.0214 12.5344 50.0284C12.0738 50.0961 11.6087 50.1296 11.1432 50.1285C10.7227 50.1285 10.3028 50.0992 9.8864 50.0406V53.8846H9.37444V49.9515C7.58384 49.5782 5.93687 48.7017 4.62712 47.4249C3.31738 46.1481 2.39922 44.524 1.9804 42.7435C1.48878 42.6746 1.03265 42.4487 0.680103 42.0992C0.327557 41.7497 0.0974612 41.2955 0.024341 40.8045C-0.0641419 40.2003 0.0907 39.5858 0.454761 39.0955C0.818822 38.6053 1.36227 38.2795 1.96624 38.1895Z" fill="white"/>
<path id="Path 58938" d="M16.5215 34.9634L18.0505 41.2324L15.7026 41.3193L15.6836 40.8083L17.4045 40.7444L16.0247 35.0852L16.5215 34.9634Z" fill="white"/>
<path id="Path 58939" d="M13.668 43.0156L13.6128 43.5247C13.1599 43.5261 12.7136 43.4177 12.3118 43.2087C11.91 42.9997 11.5648 42.6964 11.3059 42.3247C11.1475 41.9833 11.0644 41.6117 11.0625 41.2354C11.0606 40.859 11.14 40.4865 11.295 40.1436L11.76 40.3586C11.6393 40.6278 11.576 40.9191 11.5745 41.2141C11.5729 41.5091 11.6331 41.8011 11.751 42.0715C11.9725 42.3699 12.2619 42.6112 12.5952 42.7754C12.9286 42.9396 13.2964 43.0219 13.668 43.0156Z" fill="white"/>
<path id="Path 58940" d="M1.40942 39.7834L1.35449 39.2746C1.64741 39.2133 1.95091 39.2248 2.23828 39.3083C2.52565 39.3918 2.78803 39.5449 3.00244 39.7536C3.18408 40.008 3.30996 40.2978 3.37183 40.6042C3.43369 40.9106 3.43003 41.2265 3.36133 41.5315L2.86133 41.4216C2.91191 41.1952 2.91657 40.9609 2.875 40.7326C2.83343 40.5044 2.74654 40.2866 2.61938 40.0925C2.45696 39.9482 2.26249 39.845 2.052 39.7912C1.84151 39.7375 1.62114 39.7347 1.40942 39.7834Z" fill="white"/>
</g>
<g id="Group 21188">
<g id="Group 21187">
<path id="Path 58941" d="M125.663 137.794H176.257C176.257 137.794 177.188 129.918 162.682 125.911L129.282 126.111C126.67 128.966 125.998 133.404 125.663 137.794Z" fill="#587BF2"/>
</g>
</g>
<g id="Group 21190">
<g id="Group 21189">
<path id="Path 58942" d="M79.4756 137.794H132.614C132.614 137.794 133.591 129.918 118.355 125.911L83.2986 126.111C80.7566 129.336 79.8276 133.404 79.4756 137.794Z" fill="#587BF2"/>
</g>
</g>
<g id="Group 21192">
<g id="Group 21191">
<path id="Path 58943" d="M132.359 137.796H132.871C132.839 132.434 127.281 129.31 127.044 129.179L126.797 129.627C126.853 129.656 132.329 132.738 132.359 137.796Z" fill="white"/>
</g>
</g>
<g id="Group 21194">
<g id="Group 21193">
<path id="Path 58944" d="M166.272 67.7664V1.41943L166.148 1.44434C160.194 5.30534 147.236 15.7735 146.467 34.1355C146.467 34.1345 145.574 52.4344 166.272 67.7664Z" fill="#587BF2"/>
</g>
</g>
<g id="Group 21201">
<g id="Group 21196">
<g id="Group 21195">
<path id="Path 58945" d="M69.3643 18.9475L69.3494 18.9424L68.8284 18.8726C68.7974 18.8726 68.7673 18.8726 68.7373 18.8726C68.8832 18.6668 69.0692 18.4926 69.2842 18.3606C69.4992 18.2286 69.7387 18.1415 69.9883 18.1045C70.6773 18.0605 71.3552 18.6046 71.9812 19.7266C72.1732 19.6537 72.376 19.6128 72.5813 19.6055C72.4221 19.7781 72.2929 19.9761 72.1992 20.1914C72.1302 20.2142 72.0633 20.2432 71.9993 20.2776L71.7664 20.4175L71.6414 20.1765C71.0934 19.1225 70.5412 18.5855 70.0212 18.6155C69.7708 18.648 69.539 18.7652 69.3643 18.9475Z" fill="white"/>
</g>
</g>
<g id="Group 21198">
<g id="Group 21197">
<path id="Path 58946" d="M60.261 18.9863C59.694 19.6103 59.3288 21.5513 58.9438 24.1323C58.7687 24.1206 58.5928 24.1326 58.4209 24.1681C58.8349 21.3681 59.2118 19.3793 59.8818 18.6423C60.094 18.3424 60.3835 18.1057 60.7195 17.9575C61.0555 17.8092 61.4256 17.7548 61.79 17.8002C62.778 18.0062 63.4539 19.1901 63.7759 19.9001C64.1829 19.1771 65.0301 17.9452 66.0701 17.9452H66.1011C66.7011 17.9592 67.255 18.3793 67.751 19.1943C67.6381 19.2646 67.5353 19.3496 67.4451 19.4472C67.4301 19.4612 67.4181 19.4762 67.4031 19.4902C66.9831 18.7842 66.5369 18.4672 66.0889 18.4572H66.0701C65.1501 18.4572 64.2519 20.0141 63.9819 20.6191L63.7148 21.2192L63.5059 20.6013C63.3119 20.0293 62.6058 18.5013 61.6838 18.3083C61.408 18.2862 61.1314 18.3372 60.8816 18.4562C60.6318 18.5753 60.4176 18.7581 60.261 18.9863Z" fill="white"/>
</g>
</g>
<g id="Group 21200">
<g id="Group 21199">
<path id="Path 58947" d="M18.6995 60.5574C20.5402 60.8725 22.404 61.033 24.2715 61.0374C31.3085 61.0374 40.1956 58.6563 49.3096 49.2083C49.5036 49.0083 49.6915 48.7994 49.8765 48.5894C50.0483 48.6658 50.2291 48.7204 50.4146 48.7522C50.1765 49.0295 49.9311 49.2999 49.6785 49.5632C42.9935 56.4932 35.6025 60.4563 27.7095 61.3413C24.7034 61.668 21.6666 61.5768 18.6855 61.0703C18.7276 60.9024 18.7323 60.7273 18.6995 60.5574Z" fill="white"/>
</g>
</g>
</g>
<path id="Path 58948" d="M37.6536 87.997C37.8076 87.872 53.2625 75.3669 70.2585 63.3229C93.1235 47.1229 107.747 39.423 113.718 40.453C119.24 41.404 122.388 43.0709 124.589 46.2079C127.635 50.5509 128.71 57.8688 128.073 69.9388C127.586 79.1498 126.106 91.214 123.386 107.911C125.443 114.449 127.5 120.727 129.178 125.711H163.578C155.456 96.5428 148.228 76.49 141.203 63.778C141.396 63.8058 141.592 63.8027 141.783 63.7689C148.814 76.5839 156.045 96.7058 164.161 125.898L164.251 126.222H128.813L128.755 126.048C128.493 125.272 126.067 118.054 123.209 109.012C122.355 114.218 121.382 119.867 120.284 126.012L120.247 126.223H81.2825L94.7224 78.766C91.5508 86.47 87.5442 93.8031 82.7744 100.634C77.1984 108.484 71.0244 114.603 64.4224 118.82C58.6126 122.585 51.9574 124.845 45.0564 125.398C44.8902 125.357 44.7198 125.336 44.5486 125.336C43.3366 125.336 42.1266 125.407 40.9146 125.395C39.8286 125.385 38.7405 125.221 37.6545 125.295L37.5596 125.232V88.0709L37.6536 87.997ZM38.0706 125.153C58.9856 126.709 73.6874 112.538 82.3484 100.348C88.2314 91.9261 92.9384 82.7417 96.3394 73.048L96.8293 73.1959L81.9575 125.71H119.816C124.528 99.3198 126.916 82.1098 127.562 69.9098C128.193 57.9628 127.148 50.7429 124.171 46.4999C122.057 43.4869 119.004 41.8809 113.631 40.9559C107.88 39.9659 92.9854 47.8429 70.5564 63.7369C54.2684 75.2799 39.3956 87.2468 38.0706 88.3158V125.153Z" fill="white"/>
<g id="Group 21203">
<g id="Group 21202">
<path id="Path 58949" d="M9.89315 52.9741C9.89315 52.9741 11.774 55.222 13.203 53.041C13.203 53.041 15.8031 58.7109 30.1661 63.1169C31.3034 63.4096 32.4823 63.7481 33.703 64.1321V78.4561L30.4852 78.2C32.1202 81.9537 34.5313 85.3189 37.5601 88.074V125.388C37.5601 125.388 17.7271 125.305 7.69613 103.088C-0.792874 84.2881 4.04115 54.9831 9.89315 52.9741Z" fill="#587BF2"/>
</g>
</g>
<path id="Path 58950" d="M30.175 78.4152C26.632 77.9756 23.1824 76.9703 19.958 75.4374L20.1802 74.9762C23.4283 76.5204 26.9077 77.5212 30.48 77.9384C43.38 79.0794 54.8052 75.1593 64.5542 66.2013C82.2812 49.9113 82.8491 30.4133 82.6011 24.8253C82.4871 22.2743 81.8512 21.4064 81.3362 21.1254C81.1701 21.0354 80.984 20.989 80.7952 20.9904C80.5593 20.9932 80.3276 21.053 80.1201 21.1652L80.0032 21.2353C80.4122 23.5353 79.9291 27.5354 78.5471 33.3354L78.0471 33.2162C80.1411 25.4162 79.7141 21.0304 79.1921 20.1474C78.7921 19.6214 78.3922 19.3604 78.0122 19.3844C77.1472 19.4404 76.4121 20.9403 76.2051 21.5143L76.125 21.7353C76.396 23.9093 76.0251 27.1004 74.9961 31.5534L74.4961 31.4384C75.6261 26.5384 76.0162 23.1783 75.5552 21.1093C75.0142 19.8813 74.415 19.2264 73.813 19.2094H73.792C72.8 19.2094 71.8351 20.8792 71.5461 21.5282L71.5251 21.5744C71.9541 23.4344 71.9872 26.3324 71.5642 30.5954L71.0552 30.5443C71.5552 25.5033 71.46 22.4552 70.781 20.8192C70.456 20.1482 69.874 19.2033 69.113 19.0443C68.8144 19.0209 68.515 19.0768 68.2449 19.2064C67.9748 19.336 67.7438 19.5348 67.5752 19.7824C66.8272 20.6054 66.408 23.5504 65.875 27.2824C64.769 35.0484 63.098 46.7822 56.53 53.5912C49.464 60.9162 42.1352 65.0302 33.7002 65.9462V65.4704C40.5662 64.7254 48.0272 61.6703 56.1602 53.2353C62.6132 46.5463 64.2702 34.9094 65.3672 27.2094C65.9322 23.2444 66.3401 20.3793 67.1941 19.4403C67.4188 19.1224 67.7255 18.8714 68.0815 18.7138C68.4376 18.5562 68.8296 18.4979 69.2161 18.5453C69.6521 18.708 70.0495 18.9595 70.3833 19.2838C70.7171 19.6081 70.9799 19.9982 71.155 20.4293V20.4352C71.223 20.5682 71.2842 20.6953 71.3352 20.8083C71.7662 20.0363 72.6891 18.6804 73.8201 18.6994C74.6201 18.7184 75.3411 19.4162 75.9651 20.7772C76.3121 20.0682 77.0141 18.9363 77.9751 18.8773C78.7131 18.8283 79.261 19.2723 79.928 20.4723C80.4806 20.3351 81.0646 20.4062 81.5681 20.6723C82.4891 21.1723 83.0072 22.5574 83.1072 24.8024C83.3582 30.4464 82.785 50.1383 64.895 66.5783C56.143 74.6203 46.0652 78.6542 34.7952 78.6532C34.4482 78.6532 34.095 78.6473 33.748 78.6383C33.687 78.6383 33.578 78.6383 33.448 78.6383C32.3538 78.6292 31.2612 78.554 30.176 78.4132L30.175 78.4152Z" fill="white"/>
<g id="Group 21204">
<path id="Path 58951" d="M76.2068 20.7783L75.5957 20.9072C75.5374 20.674 75.4227 20.4588 75.2617 20.2803L76.5618 20.0054C76.389 20.2344 76.2679 20.498 76.2068 20.7783Z" fill="white"/>
<path id="Path 58952" d="M19.0891 36.3982L32.0581 29.8982C33.1907 29.3304 34.3915 28.9103 35.6311 28.6482L66.3779 22.1582C66.2926 22.3926 66.2418 22.6382 66.2271 22.8872L63.27 23.5112C61.5695 25.5266 60.3396 27.8956 59.6699 30.446C58.7189 33.939 58.3639 39.2461 61.1699 45.9761C61.081 46.0784 61.0044 46.1908 60.9419 46.311C58.0029 39.385 58.366 33.9222 59.342 30.3372C59.9958 27.8923 61.1452 25.6081 62.719 23.6262L45.9189 27.1721C44.6011 28.801 43.6313 30.6828 43.0691 32.7012C42.1341 36.0322 41.9071 41.3181 46.0491 47.6821L59.1121 49.843C58.9758 50.0385 58.8742 50.2561 58.812 50.4861L35.9761 46.708C34.6323 46.4859 33.3257 46.0784 32.094 45.4971C32.015 45.4611 31.9359 45.423 31.8569 45.384L19.082 38.979C18.8429 38.8593 18.6418 38.6753 18.5012 38.4478C18.3607 38.2202 18.2861 37.9581 18.2861 37.6907C18.2861 37.4232 18.3607 37.1609 18.5012 36.9333C18.6418 36.7058 18.8429 36.5219 19.082 36.4021L19.0891 36.3982ZM21.6721 39.5071L23.7319 40.54C23.3135 38.6502 23.3313 36.69 23.7839 34.8081L21.708 35.8491C21.5183 37.06 21.5078 38.2922 21.677 39.5061L21.6721 39.5071ZM28.061 34.4961C28.2603 33.7351 28.5206 32.9915 28.8391 32.2722L26.5161 33.437C26.3931 33.789 26.278 34.1571 26.177 34.5461C25.5298 36.9715 25.6264 39.5352 26.4541 41.905L28.7871 43.0752C27.5535 40.3871 27.2983 37.3523 28.0659 34.4961H28.061ZM29.0339 43.196L31.5859 44.4761C30.6759 42.9993 30.0766 41.3523 29.8247 39.636C29.5728 37.9197 29.6738 36.1702 30.1211 34.4941C30.4547 33.2362 30.9484 32.0262 31.5901 30.894L29.0801 32.1531C28.726 32.927 28.4391 33.7301 28.2229 34.5532C27.4531 37.4398 27.7427 40.5067 29.0391 43.1982L29.0339 43.196ZM26.0129 34.4961C26.0989 34.1661 26.1951 33.8501 26.2981 33.5461L23.9841 34.7061C23.4924 36.651 23.4737 38.6856 23.9299 40.6392L26.2351 41.7952C25.4485 39.4361 25.373 36.8977 26.0181 34.4961H26.0129ZM36.094 46.031L45.594 47.603C41.553 41.241 41.8001 35.9451 42.7461 32.5891C43.2873 30.6688 44.1856 28.8675 45.394 27.28L35.7681 29.312C34.5859 29.5623 33.4406 29.963 32.3601 30.5042L31.8601 30.7532C31.1636 31.9372 30.6317 33.2105 30.2791 34.5381C29.8253 36.2372 29.7323 38.0124 30.0063 39.7495C30.2804 41.4867 30.9154 43.1471 31.8701 44.624L32.063 44.7241L32.155 44.769C32.228 44.805 32.2999 44.8402 32.3789 44.8752C33.5595 45.4296 34.8117 45.8169 36.0991 46.0261L36.094 46.031ZM19.394 38.3652L21.4851 39.4131C21.3382 38.2599 21.3496 37.0922 21.519 35.9421L19.394 37.0071C19.2682 37.0702 19.1623 37.167 19.0884 37.2869C19.0144 37.4067 18.9751 37.5447 18.9751 37.6855C18.9751 37.8264 19.0144 37.9644 19.0884 38.0842C19.1623 38.2041 19.2682 38.3009 19.394 38.364V38.3652Z" fill="white"/>
<path id="Path 58953" d="M84.3972 54.0222C84.0763 54.1212 83.7931 54.3156 83.5852 54.5793L75.3701 53.2202C75.5039 53.0245 75.6015 52.8063 75.6582 52.5762L84.3972 54.0222Z" fill="white"/>
<path id="Path 58954" d="M82.2039 34.2183C82.2853 33.8407 82.336 33.4571 82.355 33.0713C82.421 32.0343 82.8699 31.0022 82.8469 29.9192C82.844 29.7032 82.8077 29.489 82.739 29.2842C82.8157 28.8728 82.8975 28.4756 82.9849 28.0923C83.7262 24.6813 85.0796 21.4327 86.979 18.5042L79.5679 20.0681C79.4014 19.8289 79.1768 19.6363 78.915 19.5083L166.08 1.10815L166.614 0.99707V68.3152L127.781 61.8892C127.811 61.6584 127.806 61.4242 127.765 61.1951L136.939 62.7131C131.839 55.3071 128.651 47.8373 127.47 40.4993C126.519 34.7336 126.857 28.8286 128.46 23.2092C130.063 17.5898 132.891 12.3955 136.741 7.99927L108.841 13.8882C105.909 17.2943 103.759 21.3012 102.541 25.6272C100.902 31.5452 100.902 37.7971 102.541 43.7151C102.428 43.7652 102.32 43.8263 102.219 43.8972C101.862 42.5622 101.577 41.2089 101.366 39.8433C100.608 35.0685 100.897 30.1858 102.215 25.5342C103.414 21.3098 105.485 17.3829 108.292 14.0061L87.4739 18.4001C85.4786 21.3667 84.0697 24.6877 83.323 28.1841C82.087 33.6561 81.7328 42.2163 86.6118 52.6753C86.5065 52.7211 86.4062 52.7774 86.312 52.8433C83.4775 47.0512 82.0688 40.6653 82.2039 34.2183ZM165.915 1.84326C162.467 4.11915 159.331 6.83622 156.587 9.92529C152.122 14.9393 146.771 23.2101 146.636 34.1401C146.512 44.1131 151.88 52.7241 156.404 58.1921C159.238 61.6103 162.432 64.7136 165.93 67.4482V1.84131L165.915 1.84326ZM128.889 22.9502C126.262 31.7832 125.622 45.8502 137.406 62.7942L165.333 67.4153C161.971 64.7375 158.893 61.7217 156.147 58.4153C151.583 52.9023 146.17 44.2153 146.295 34.1353C146.432 23.0953 151.833 14.7482 156.34 9.68921C158.915 6.80164 161.826 4.23176 165.01 2.03418L137.31 7.88013C133.412 12.2111 130.534 17.3607 128.889 22.9502Z" fill="white"/>
</g>
<g id="Group 21206">
<g id="Group 21205">
<path id="Path 58955" d="M8.19041 44.512C9.67641 44.512 6.09727 42.8432 7.19627 39.0352C8.29527 35.2272 15.2154 41.9283 20.5764 37.1273C25.9374 32.3263 17.8193 25.1272 15.7763 27.4112C13.7333 29.6952 16.2935 30.8893 14.4065 31.2113C12.5195 31.5333 1.8154 29.0901 1.9824 38.6951C1.9804 38.6991 6.70441 44.508 8.19041 44.512Z" fill="white"/>
</g>
</g>
<g id="Group 21209">
<g id="Group 21208">
<g id="Group 21207">
<path id="Path 58956" d="M15.8496 129.974H62.7896V125.106H15.8496V129.974ZM62.4495 129.633H16.1914V125.447H62.4495V129.633Z" fill="white"/>
</g>
</g>
</g>
</g>
</svg>
